REM MD5 04f74e19c699980306f459b1dc589e83
FILE "Official U.S. PlayStation Magazine Demo Disc 28 (USA).bin" BINARY
  TRACK 01 MODE2/2352
    INDEX 01 00:00:00
  TRACK 02 AUDIO
    INDEX 00 35:04:29
    INDEX 01 35:06:29
  TRACK 03 AUDIO
    INDEX 00 37:28:50
    INDEX 01 37:30:50
  TRACK 04 AUDIO
    INDEX 00 41:00:51
    INDEX 01 41:02:51
REM LEADOUT 41:08:47
